<svg width="16" height="16" viewBox="0 0 16 16" fill="none" xmlns="http://www.w3.org/2000/svg">
<path d="M16 1.71429V14.2857C16 15.2321 15.2321 16 14.2857 16H5.51429C5.86429 15.4143 6.31429 14.5714 6.49286 13.8821C6.6 13.4714 7.03929 11.7964 7.03929 11.7964C7.325 12.3429 8.16071 12.8036 9.05 12.8036C11.6964 12.8036 13.6 10.3714 13.6 7.35C13.6 4.45357 11.2357 2.28571 8.19286 2.28571C4.40714 2.28571 2.4 4.825 2.4 7.59286C2.4 8.87857 3.08571 10.4786 4.17857 10.9893C4.34643 11.0679 4.43214 11.0321 4.47143 10.8714C4.5 10.75 4.65 10.1536 4.71429 9.87857C4.73571 9.78929 4.725 9.71429 4.65357 9.62857C4.29286 9.18929 4 8.38214 4 7.62857C4 5.69286 5.46429 3.82143 7.96071 3.82143C10.1143 3.82143 11.625 5.28929 11.625 7.38929C11.625 9.76071 10.4286 11.4036 8.86786 11.4036C8.00714 11.4036 7.36429 10.6929 7.56786 9.81786C7.81429 8.775 8.29286 7.65 8.29286 6.89643C8.29286 5.00357 5.59643 5.26429 5.59643 7.78929C5.59643 8.56429 5.85714 9.09286 5.85714 9.09286C4.73571 13.8357 4.56786 13.8964 4.8 15.9714L4.87857 16H1.71429C0.767857 16 0 15.2321 0 14.2857V1.71429C0 0.767857 0.767857 0 1.71429 0H14.2857C15.2321 0 16 0.767857 16 1.71429Z" fill="#CB977C"/>
</svg>
